<svg id="visual" viewBox="0 0 900 600" width="900" height="600" xmlns="http://www.w3.org/2000/svg" xmlns:xlink="http://www.w3.org/1999/xlink" version="1.1"><rect x="0" y="0" width="900" height="600" fill="#140021"></rect><path d="M0 278L129 278L129 286L257 286L257 309L386 309L386 253L514 253L514 254L643 254L643 381L771 381L771 324L900 324L900 311L900 601L900 601L771 601L771 601L643 601L643 601L514 601L514 601L386 601L386 601L257 601L257 601L129 601L129 601L0 601Z" fill="#9900ff"></path><path d="M0 354L129 354L129 421L257 421L257 369L386 369L386 404L514 404L514 414L643 414L643 459L771 459L771 374L900 374L900 404L900 601L900 601L771 601L771 601L643 601L643 601L514 601L514 601L386 601L386 601L257 601L257 601L129 601L129 601L0 601Z" fill="#7700c6"></path><path d="M0 448L129 448L129 470L257 470L257 489L386 489L386 503L514 503L514 485L643 485L643 486L771 486L771 534L900 534L900 457L900 601L900 601L771 601L771 601L643 601L643 601L514 601L514 601L386 601L386 601L257 601L257 601L129 601L129 601L0 601Z" fill="#560090"></path></svg>