<svg xmlns="http://www.w3.org/2000/svg" version="1.1" xmlns:xlink="http://www.w3.org/1999/xlink" xmlns:svgjs="http://svgjs.com/svgjs" width="1440" height="560" preserveAspectRatio="none" viewBox="0 0 1440 560"><g mask="url(&quot;#SvgjsMask1002&quot;)" fill="none"><rect width="1440" height="560" x="0" y="0" fill="url(#SvgjsLinearGradient1003)"></rect><path d="M1440 0L1045.8 0L1440 273.57z" fill="rgba(255, 255, 255, .1)"></path><path d="M1045.8 0L1440 273.57L1440 310.07L528.52 0z" fill="rgba(255, 255, 255, .075)"></path><path d="M528.52 0L1440 310.07L1440 454.44L527.75 0z" fill="rgba(255, 255, 255, .05)"></path><path d="M527.75 0L1440 454.44L1440 482.54L481.55 0z" fill="rgba(255, 255, 255, .025)"></path><path d="M0 560L47.81 560L0 343.28z" fill="rgba(0, 0, 0, .1)"></path><path d="M0 343.28L47.81 560L605.8900000000001 560L0 155.93999999999997z" fill="rgba(0, 0, 0, .075)"></path><path d="M0 155.94L605.8900000000001 560L829.45 560L0 148.63z" fill="rgba(0, 0, 0, .05)"></path><path d="M0 148.63L829.45 560L1254.94 560L0 124.78z" fill="rgba(0, 0, 0, .025)"></path></g><defs><mask id="SvgjsMask1002"><rect width="1440" height="560" fill="#ffffff"></rect></mask><linearGradient x1="15.28%" y1="-39.29%" x2="84.72%" y2="139.29%" gradientUnits="userSpaceOnUse" id="SvgjsLinearGradient1003"><stop stop-color="#0e2a47" offset="0"></stop><stop stop-color="#00459e" offset="1"></stop></linearGradient></defs></svg>